<?xml version="1.0" standalone="no"?>
<!DOCTYPE svg PUBLIC "-//W3C//DTD SVG 20010904//EN"
 "http://www.w3.org/TR/2001/REC-SVG-20010904/DTD/svg10.dtd">
<svg version="1.0" xmlns="http://www.w3.org/2000/svg"
 width="206.000000pt" height="206.000000pt" viewBox="0 0 206.000000 206.000000"
 preserveAspectRatio="xMidYMid meet">

<g transform="translate(0.000000,206.000000) scale(0.100000,-0.100000)"
fill="#000000" stroke="none">
<path d="M550 1719 c-256 -187 -471 -348 -478 -357 -16 -21 -15 -23 63 -131
51 -70 72 -91 90 -91 13 0 27 5 30 10 3 6 13 10 21 10 12 0 14 -80 14 -568 0
-428 3 -571 12 -580 9 -9 185 -12 729 -12 639 0 719 2 733 16 14 14 16 80 16
580 0 346 4 564 9 564 6 0 13 -4 16 -10 3 -5 17 -10 30 -10 18 0 39 21 90 91
78 108 79 110 63 131 -21 27 -942 697 -958 697 -8 0 -224 -153 -480 -340z
m912 -65 c238 -174 434 -317 435 -318 5 -4 -63 -95 -72 -95 -5 -1 -185 128
-399 284 -213 157 -392 285 -396 285 -4 0 -182 -128 -396 -285 -214 -156 -393
-284 -399 -284 -5 0 -24 21 -42 46 l-32 47 112 82 c62 45 256 188 432 317 176
130 321 236 322 236 2 1 197 -141 435 -315z m-89 -189 l327 -239 0 -493 0
-493 -484 0 -485 0 -15 -22 c-11 -15 -12 -26 -5 -39 9 -18 36 -19 497 -21
l487 -3 3 -37 3 -38 -665 0 -666 0 0 560 0 560 478 0 c481 0 502 1 502 34 -1
41 -1 41 -464 46 l-445 5 287 212 c158 116 294 211 302 210 9 -1 163 -110 343
-242z"/>
<path d="M1426 1264 c-19 -19 -20 -25 -3 -49 20 -26 67 -13 67 18 0 43 -35 60
-64 31z"/>
<path d="M625 1133 c-35 -9 -63 -34 -80 -70 -19 -39 -17 -117 7 -236 8 -44 8
-68 -1 -98 -17 -57 -15 -151 4 -209 24 -71 98 -150 177 -186 l63 -29 235 0
235 0 62 29 c149 69 219 208 186 370 -12 55 -12 83 -4 126 6 30 14 87 17 126
10 106 -22 161 -102 178 -23 5 -62 -3 -145 -30 -107 -35 -122 -38 -244 -39
-124 0 -135 1 -245 37 -115 38 -128 40 -165 31z m140 -109 c99 -36 101 -36
265 -36 165 0 165 0 268 37 99 35 104 36 129 20 25 -16 25 -19 18 -89 -3 -39
-12 -98 -19 -131 -10 -47 -10 -68 0 -100 17 -54 17 -149 1 -188 -22 -50 -65
-96 -121 -125 l-51 -27 -225 0 -225 0 -51 27 c-56 29 -99 75 -121 125 -16 39
-16 134 1 188 10 32 10 53 0 100 -7 33 -16 92 -19 131 -7 67 -6 72 16 88 13 9
26 16 29 16 3 -1 50 -17 105 -36z"/>
<path d="M759 760 c-38 -20 -52 -41 -43 -64 8 -22 29 -26 68 -14 27 8 42 8 61
0 35 -16 65 0 65 34 0 20 -9 29 -42 44 -53 24 -64 24 -109 0z"/>
<path d="M1193 760 c-34 -15 -43 -24 -43 -44 0 -34 30 -50 65 -34 19 8 34 8
61 0 39 -12 60 -8 68 14 9 24 -5 44 -45 64 -47 24 -53 24 -106 0z"/>
<path d="M1002 628 c-7 -7 -12 -19 -12 -28 0 -21 -20 -40 -42 -40 -27 0 -40
-33 -22 -58 18 -26 38 -27 77 -7 24 12 32 12 62 -1 25 -10 41 -12 54 -4 41 21
34 54 -15 75 -21 9 -34 21 -34 32 0 23 -19 43 -40 43 -9 0 -21 -5 -28 -12z"/>
<path d="M576 227 c-21 -16 -18 -45 7 -61 37 -23 77 35 41 61 -10 7 -21 13
-24 13 -3 0 -14 -6 -24 -13z"/>
</g>
</svg>
